<svg width="14" height="8" viewBox="0 0 14 8" fill="none" xmlns="http://www.w3.org/2000/svg">
<path d="M0.334888 1.61304C0.334455 1.39238 0.411783 1.17854 0.553451 1.00863C0.633225 0.913006 0.7312 0.833959 0.841763 0.776019C0.952324 0.718079 1.0733 0.682384 1.19776 0.67098C1.32223 0.659576 1.44773 0.672686 1.56709 0.709559C1.68645 0.746432 1.79731 0.806343 1.89334 0.885863L6.9868 5.11672L12.0898 1.03697C12.187 0.958519 12.2988 0.899937 12.4189 0.864587C12.5389 0.829237 12.6648 0.817816 12.7893 0.83098C12.9139 0.844144 13.0345 0.881633 13.1444 0.941294C13.2543 1.00095 13.3512 1.08161 13.4297 1.17862C13.5162 1.27634 13.5814 1.39076 13.6213 1.51473C13.6612 1.63869 13.6749 1.76951 13.6615 1.89898C13.6481 2.02845 13.608 2.15377 13.5435 2.26708C13.4791 2.38039 13.3918 2.47924 13.2871 2.55743L7.58548 7.11882C7.41544 7.25773 7.20216 7.33366 6.98205 7.33366C6.76195 7.33366 6.54866 7.25773 6.37863 7.11882L0.676988 2.39688C0.561988 2.30215 0.471081 2.1818 0.411642 2.04561C0.352204 1.90942 0.325908 1.76122 0.334888 1.61304Z" fill="#0067AA"/>
</svg>
