<svg width="14" height="8" viewBox="0 0 14 8" fill="none" xmlns="http://www.w3.org/2000/svg">
<path d="M13.6651 6.38745C13.6655 6.6081 13.5882 6.82195 13.4465 6.99185C13.3668 7.08748 13.2688 7.16653 13.1582 7.22447C13.0477 7.28241 12.9267 7.3181 12.8022 7.32951C12.6778 7.34091 12.5523 7.3278 12.4329 7.29093C12.3136 7.25406 12.2027 7.19414 12.1067 7.11462L7.0132 2.88377L1.91023 6.96352C1.81302 7.04197 1.70118 7.10055 1.58112 7.1359C1.46107 7.17125 1.33516 7.18267 1.21065 7.16951C1.08614 7.15634 0.965471 7.11885 0.855584 7.05919C0.745698 6.99953 0.648759 6.91888 0.57034 6.82186C0.48383 6.72415 0.418577 6.60972 0.378676 6.48576C0.338775 6.3618 0.325088 6.23098 0.338472 6.10151C0.351857 5.97204 0.392024 5.84672 0.456455 5.73341C0.520885 5.6201 0.608187 5.52125 0.712881 5.44306L6.41452 0.881664C6.58456 0.742761 6.79784 0.666827 7.01795 0.666827C7.23805 0.666827 7.45134 0.742761 7.62137 0.881663L13.323 5.6036C13.438 5.69834 13.5289 5.81869 13.5884 5.95488C13.6478 6.09107 13.6741 6.23927 13.6651 6.38745Z" fill="#0067AA"/>
</svg>
