<svg width="14" height="18" viewBox="0 0 14 18" fill="none" xmlns="http://www.w3.org/2000/svg">
<path d="M12.4118 0H1.64658C0.769825 0 0 0.699726 0 1.52797V16.9774C0 17.2547 0.0795375 17.4858 0.207725 17.6643C0.361025 17.8777 0.607862 18 0.87255 17.9999C1.1228 17.9999 1.38924 17.8919 1.63529 17.688L6.45164 13.7207C6.60039 13.5975 6.81406 13.5269 7.03622 13.5269C7.2583 13.5269 7.47154 13.5975 7.62072 13.7211L12.421 17.6874C12.6679 17.8919 12.916 18 13.1658 18C13.5882 18 14 17.6839 14 16.9775V1.52797C14 0.699726 13.2885 0 12.4118 0Z" fill="#0067AA"/>
</svg>
