<svg width="24" height="24" viewBox="0 0 24 24" fill="none" xmlns="http://www.w3.org/2000/svg">
<path d="M4.99997 21.7501C4.7298 21.7491 4.46328 21.6876 4.21997 21.5701C3.92173 21.43 3.66941 21.208 3.49238 20.9301C3.31535 20.6521 3.22088 20.3296 3.21997 20.0001V3.00011C3.22127 2.76814 3.26842 2.53871 3.35871 2.32502C3.44899 2.11133 3.58063 1.9176 3.74606 1.75496C3.91148 1.59233 4.10742 1.464 4.32261 1.37736C4.53781 1.29072 4.76801 1.24747 4.99997 1.25011H19C19.4633 1.25274 19.9069 1.43796 20.2345 1.76558C20.5621 2.0932 20.7473 2.53679 20.75 3.00011V20.0001C20.7435 20.3168 20.6512 20.6258 20.4828 20.8941C20.3145 21.1624 20.0766 21.3801 19.7943 21.5238C19.512 21.6675 19.196 21.7319 18.88 21.7101C18.564 21.6883 18.2599 21.5812 18 21.4001L12.2 17.0501C12.1574 17.016 12.1045 16.9975 12.05 16.9975C11.9954 16.9975 11.9425 17.016 11.9 17.0501L6.04997 21.4001C5.74638 21.626 5.37839 21.7487 4.99997 21.7501ZM4.99997 2.75011C4.93367 2.75011 4.87008 2.77645 4.82319 2.82334C4.77631 2.87022 4.74997 2.93381 4.74997 3.00011V20.0001C4.74962 20.0464 4.76265 20.0918 4.78748 20.1308C4.81232 20.1698 4.84791 20.2008 4.88997 20.2201C4.92825 20.2463 4.97357 20.2604 5.01997 20.2604C5.06637 20.2604 5.11169 20.2463 5.14997 20.2201L11 15.8501C11.3042 15.626 11.6721 15.505 12.05 15.505C12.4278 15.505 12.7958 15.626 13.1 15.8501L18.9 20.2001C18.9382 20.2263 18.9836 20.2404 19.03 20.2404C19.0764 20.2404 19.1217 20.2263 19.16 20.2001C19.202 20.1808 19.2376 20.1498 19.2625 20.1108C19.2873 20.0718 19.3003 20.0264 19.3 19.9801V3.00011C19.3007 2.96262 19.293 2.92543 19.2775 2.89131C19.2619 2.85719 19.2389 2.82701 19.2101 2.803C19.1813 2.77899 19.1474 2.76177 19.111 2.75261C19.0747 2.74346 19.0367 2.74261 19 2.75011H4.99997Z" fill="#0067AA"/>
</svg>
