<svg width="24" height="24" viewBox="0 0 24 24" fill="none" xmlns="http://www.w3.org/2000/svg">
<path d="M18.8466 3.97983H16.5473V3.65322C16.5473 3.47998 16.4785 3.31383 16.3559 3.19132C16.2334 3.06882 16.0673 3 15.8941 3C15.7208 3 15.5547 3.06882 15.4322 3.19132C15.3096 3.31383 15.2408 3.47998 15.2408 3.65322V3.97983H8.35586V3.65322C8.35586 3.47998 8.28704 3.31383 8.16453 3.19132C8.04203 3.06882 7.87588 3 7.70264 3C7.52939 3 7.36324 3.06882 7.24074 3.19132C7.11823 3.31383 7.04941 3.47998 7.04941 3.65322V3.97983H4.75007C4.02124 3.98156 3.32275 4.27185 2.80738 4.78722C2.29202 5.30258 2.00173 6.00107 2 6.7299V18.1874C2.00173 18.9163 2.29202 19.6148 2.80738 20.1301C3.32275 20.6455 4.02124 20.9358 4.75007 20.9375H18.8466C19.5755 20.9358 20.2739 20.6455 20.7893 20.1301C21.3047 19.6148 21.595 18.9163 21.5967 18.1874V6.7299C21.595 6.00107 21.3047 5.30258 20.7893 4.78722C20.2739 4.27185 19.5755 3.98156 18.8466 3.97983ZM4.75007 5.28628H7.04941V5.61289C7.04941 5.78614 7.11823 5.95229 7.24074 6.07479C7.36324 6.19729 7.52939 6.26611 7.70264 6.26611C7.87588 6.26611 8.04203 6.19729 8.16453 6.07479C8.28704 5.95229 8.35586 5.78614 8.35586 5.61289V5.28628H15.2408V5.61289C15.2408 5.78614 15.3096 5.95229 15.4322 6.07479C15.5547 6.19729 15.7208 6.26611 15.8941 6.26611C16.0673 6.26611 16.2334 6.19729 16.3559 6.07479C16.4785 5.95229 16.5473 5.78614 16.5473 5.61289V5.28628H18.8466C19.2295 5.28628 19.5967 5.43838 19.8674 5.70911C20.1381 5.97984 20.2902 6.34703 20.2902 6.7299V8.27804H3.30645V6.7299C3.30645 6.34703 3.45854 5.97984 3.72927 5.70911C4.00001 5.43838 4.3672 5.28628 4.75007 5.28628ZM18.8466 19.6572H4.75007C4.55827 19.6572 4.36839 19.619 4.19152 19.5449C4.01464 19.4707 3.85432 19.362 3.71992 19.2252C3.58552 19.0883 3.47974 18.9261 3.40874 18.7479C3.33775 18.5697 3.30297 18.3792 3.30645 18.1874V9.58449H20.2902V18.1874C20.2937 18.3792 20.2589 18.5697 20.1879 18.7479C20.117 18.9261 20.0112 19.0883 19.8768 19.2252C19.7424 19.362 19.582 19.4707 19.4052 19.5449C19.2283 19.619 19.0384 19.6572 18.8466 19.6572Z" fill="#0067AA"/>
</svg>
