<svg width="20" height="18" viewBox="0 0 20 18" fill="none" xmlns="http://www.w3.org/2000/svg">
<rect width="20" height="18" fill="#1E1E1E"/>
<path d="M-8905 -485C-8905 -540.228 -8860.23 -585 -8805 -585H16601C16656.2 -585 16701 -540.228 16701 -485V4390C16701 4445.23 16656.2 4490 16601 4490H-8805C-8860.23 4490 -8905 4445.23 -8905 4390V-485Z" fill="#444444"/>
<path d="M-8805 -584H16601V-586H-8805V-584ZM16700 -485V4390H16702V-485H16700ZM16601 4489H-8805V4491H16601V4489ZM-8904 4390V-485H-8906V4390H-8904ZM-8805 4489C-8859.68 4489 -8904 4444.68 -8904 4390H-8906C-8906 4445.78 -8860.78 4491 -8805 4491V4489ZM16700 4390C16700 4444.68 16655.7 4489 16601 4489V4491C16656.8 4491 16702 4445.78 16702 4390H16700ZM16601 -584C16655.7 -584 16700 -539.676 16700 -485H16702C16702 -540.781 16656.8 -586 16601 -586V-584ZM-8805 -586C-8860.78 -586 -8906 -540.781 -8906 -485H-8904C-8904 -539.676 -8859.68 -584 -8805 -584V-586Z" fill="white" fill-opacity="0.1"/>
<path d="M-8775 -386C-8775 -441.228 -8730.23 -486 -8675 -486H2073C2128.23 -486 2173 -441.228 2173 -386V4131C2173 4186.23 2128.23 4231 2073 4231H-8675C-8730.23 4231 -8775 4186.23 -8775 4131V-386Z" fill="#373737"/>
<g clip-path="url(#clip0_0_1)">
<rect width="1440" height="4070" transform="translate(-954 -275)" fill="#F9FDFF"/>
<path d="M-954 -243C-954 -260.673 -939.673 -275 -922 -275H454C471.673 -275 486 -260.673 486 -243V3139H-954V-243Z" fill="#F9FDFF"/>
<g opacity="0.4" filter="url(#filter0_f_0_1)">
<path d="M548 130.145C548 153.374 521.091 167.038 501.98 153.834C396.744 81.1232 142.086 -76.1308 70.3961 49.8792C-20.1758 209.078 -376.699 156.947 112.092 -361.001C117.35 -366.573 124.961 -370 132.623 -370H520C535.464 -370 548 -357.464 548 -342V130.145Z" fill="#B0E0FF"/>
</g>
<g filter="url(#filter1_d_0_1)">
<rect x="-26" y="-87" width="416" height="388" rx="16" fill="white" shape-rendering="crispEdges"/>
<path d="M16.8466 0.979834H14.5473V0.653223C14.5473 0.479977 14.4785 0.313828 14.3559 0.191325C14.2334 0.0688215 14.0673 0 13.8941 0C13.7208 0 13.5547 0.0688215 13.4322 0.191325C13.3096 0.313828 13.2408 0.479977 13.2408 0.653223V0.979834H6.35586V0.653223C6.35586 0.479977 6.28704 0.313828 6.16453 0.191325C6.04203 0.0688215 5.87588 0 5.70264 0C5.52939 0 5.36324 0.0688215 5.24074 0.191325C5.11823 0.313828 5.04941 0.479977 5.04941 0.653223V0.979834H2.75007C2.02124 0.981559 1.32275 1.27185 0.807382 1.78722C0.292018 2.30258 0.00172506 3.00107 0 3.7299V15.1874C0.00172506 15.9163 0.292018 16.6148 0.807382 17.1301C1.32275 17.6455 2.02124 17.9358 2.75007 17.9375H16.8466C17.5755 17.9358 18.2739 17.6455 18.7893 17.1301C19.3047 16.6148 19.595 15.9163 19.5967 15.1874V3.7299C19.595 3.00107 19.3047 2.30258 18.7893 1.78722C18.2739 1.27185 17.5755 0.981559 16.8466 0.979834ZM2.75007 2.28628H5.04941V2.61289C5.04941 2.78614 5.11823 2.95229 5.24074 3.07479C5.36324 3.19729 5.52939 3.26611 5.70264 3.26611C5.87588 3.26611 6.04203 3.19729 6.16453 3.07479C6.28704 2.95229 6.35586 2.78614 6.35586 2.61289V2.28628H13.2408V2.61289C13.2408 2.78614 13.3096 2.95229 13.4322 3.07479C13.5547 3.19729 13.7208 3.26611 13.8941 3.26611C14.0673 3.26611 14.2334 3.19729 14.3559 3.07479C14.4785 2.95229 14.5473 2.78614 14.5473 2.61289V2.28628H16.8466C17.2295 2.28628 17.5967 2.43838 17.8674 2.70911C18.1381 2.97984 18.2902 3.34703 18.2902 3.7299V5.27804H1.30645V3.7299C1.30645 3.34703 1.45854 2.97984 1.72927 2.70911C2.00001 2.43838 2.3672 2.28628 2.75007 2.28628ZM16.8466 16.6572H2.75007C2.55827 16.6572 2.36839 16.619 2.19152 16.5449C2.01464 16.4707 1.85432 16.362 1.71992 16.2252C1.58552 16.0883 1.47974 15.9261 1.40874 15.7479C1.33775 15.5697 1.30297 15.3792 1.30645 15.1874V6.58449H18.2902V15.1874C18.2937 15.3792 18.2589 15.5697 18.1879 15.7479C18.117 15.9261 18.0112 16.0883 17.8768 16.2252C17.7424 16.362 17.582 16.4707 17.4052 16.5449C17.2283 16.619 17.0384 16.6572 16.8466 16.6572Z" fill="#6A7B81"/>
</g>
</g>
<defs>
<filter id="filter0_f_0_1" x="-390" y="-620" width="1188" height="1028.99" filterUnits="userSpaceOnUse" color-interpolation-filters="sRGB">
<feFlood flood-opacity="0" result="BackgroundImageFix"/>
<feBlend mode="normal" in="SourceGraphic" in2="BackgroundImageFix" result="shape"/>
<feGaussianBlur stdDeviation="125" result="effect1_foregroundBlur_0_1"/>
</filter>
<filter id="filter1_d_0_1" x="-66" y="-123" width="496" height="468" filterUnits="userSpaceOnUse" color-interpolation-filters="sRGB">
<feFlood flood-opacity="0" result="BackgroundImageFix"/>
<feColorMatrix in="SourceAlpha" type="matrix" values="0 0 0 0 0 0 0 0 0 0 0 0 0 0 0 0 0 0 127 0" result="hardAlpha"/>
<feOffset dy="4"/>
<feGaussianBlur stdDeviation="20"/>
<feComposite in2="hardAlpha" operator="out"/>
<feColorMatrix type="matrix" values="0 0 0 0 0 0 0 0 0 0 0 0 0 0 0 0 0 0 0.03 0"/>
<feBlend mode="normal" in2="BackgroundImageFix" result="effect1_dropShadow_0_1"/>
<feBlend mode="normal" in="SourceGraphic" in2="effect1_dropShadow_0_1" result="shape"/>
</filter>
<clipPath id="clip0_0_1">
<rect width="1440" height="4070" fill="white" transform="translate(-954 -275)"/>
</clipPath>
</defs>
</svg>
