<svg width="16" height="16" viewBox="0 0 16 16" fill="none" xmlns="http://www.w3.org/2000/svg">
<path d="M13.802 2.19808C13.6159 2.01189 13.3481 1.95246 13.0854 2.03899L2.42958 5.55277C2.30558 5.59358 2.19353 5.6643 2.10333 5.75866C2.0614 5.80273 2.03082 5.85633 2.01423 5.91484C1.99763 5.97336 1.99552 6.03503 2.00807 6.09454C2.02062 6.15406 2.04746 6.20962 2.08627 6.25645C2.12508 6.30328 2.1747 6.33997 2.23085 6.36335L7.15201 8.41198C7.26423 8.45867 7.54133 8.73577 7.58794 8.84792L9.63656 13.7691C9.65994 13.8253 9.69662 13.8749 9.74345 13.9137C9.79028 13.9525 9.84584 13.9794 9.90535 13.9919C9.96487 14.0045 10.0265 14.0024 10.0851 13.9858C10.1436 13.9692 10.1972 13.9386 10.2412 13.8967C10.3356 13.8065 10.4063 13.6945 10.4472 13.5705L13.961 2.91456C14.0475 2.65199 13.9881 2.38415 13.802 2.19808ZM3.43794 6.05348L3.37958 6.02922L12.4223 3.04738L7.63765 7.83207C7.57596 7.78778 7.50981 7.75008 7.44026 7.71958L3.43794 6.05348ZM9.9708 12.6205L8.28042 8.55978C8.24991 8.49024 8.21221 8.42408 8.16792 8.36239L12.9526 3.5777L9.9708 12.6205Z" fill="#EF4135"/>
</svg>
