<svg width="24" height="24" viewBox="0 0 24 24" fill="none" xmlns="http://www.w3.org/2000/svg">
<path fill-rule="evenodd" clip-rule="evenodd" d="M20.725 15.4368C20.725 17.2537 19.2417 18.7294 17.4206 18.7294H6.57944C4.75832 18.7294 3.27501 17.2537 3.27501 15.4368V8.56315C3.27501 7.95674 3.44164 7.38718 3.73087 6.89835L9.02069 12.1694C9.81209 12.9603 10.8719 13.3961 12.0011 13.3961C13.1281 13.3961 14.1879 12.9603 14.9793 12.1694L20.2691 6.89835C20.5584 7.38718 20.7249 7.95669 20.7249 8.56315V15.4368H20.725ZM17.4206 5.27049H6.57944C5.82739 5.27049 5.13316 5.5241 4.57781 5.94607L9.92086 11.2725C10.4739 11.8212 11.2121 12.1256 12.0011 12.1256C12.7879 12.1256 13.5261 11.8212 14.0791 11.2725L19.4221 5.94607C18.8668 5.5241 18.1727 5.27049 17.4206 5.27049ZM17.4206 4H6.57944C4.05485 4 2 6.04756 2 8.56319V15.4368C2 17.9548 4.05485 20 6.57944 20H17.4206C19.9452 20 22 17.9548 22 15.4368V8.56315C22 6.04752 19.9452 4 17.4206 4Z" fill="#142F37"/>
</svg>
