<svg width="14" height="15" viewBox="0 0 14 15" fill="none" xmlns="http://www.w3.org/2000/svg">
<path fill-rule="evenodd" clip-rule="evenodd" d="M1.00017 6.73325L0.822795 6.88313C0.61242 7.06145 0.296857 7.03519 0.118107 6.8246C-0.0599555 6.614 -0.0338302 6.29784 0.177232 6.11951L6.03129 1.16534C6.59023 0.691633 7.40973 0.691633 7.96867 1.16534L13.8227 6.11951C14.0338 6.29784 14.0599 6.614 13.8819 6.8246C13.7031 7.03519 13.3875 7.06145 13.1772 6.88313L12.9998 6.73325V13.5029C12.9998 13.9011 12.8417 14.2829 12.5605 14.5641C12.2793 14.8453 11.8977 15.0033 11.4997 15.0033H2.50029C2.10223 15.0033 1.72067 14.8453 1.43948 14.5641C1.15829 14.2829 1.00017 13.9011 1.00017 13.5029V6.73325ZM12.0002 5.88704L7.32311 1.92895C7.13679 1.77086 6.86317 1.77086 6.67686 1.92895L1.99979 5.88704V13.5029C1.99979 13.6358 2.05273 13.7627 2.14623 13.8568C2.24042 13.9504 2.36761 14.0034 2.50029 14.0034H11.4997C11.6324 14.0034 11.7595 13.9504 11.8537 13.8568C11.9472 13.7627 12.0002 13.6358 12.0002 13.5029V5.88704Z" fill="#0067AA"/>
</svg>
