<svg width="24" height="24" viewBox="0 0 24 24" fill="none" xmlns="http://www.w3.org/2000/svg">
<g clip-path="url(#clip0_150_880)">
<path d="M12.918 16.5898L9.24585 20.262C9.24585 20.262 9.24585 20.2621 9.24576 20.2621C9.24576 20.2621 9.24576 20.2621 9.24568 20.2621C7.72715 21.7808 5.25616 21.7808 3.73746 20.2621C3.00174 19.5264 2.59666 18.5483 2.59666 17.5079C2.59666 16.4677 3.00174 15.4897 3.7372 14.754C3.73729 14.7539 3.73738 14.7538 3.73746 14.7538L7.40958 11.0816C7.91653 10.5745 7.91653 9.75241 7.40949 9.24545C6.90253 8.7385 6.08043 8.7385 5.57339 9.24545L1.90128 12.9177C1.90102 12.9179 1.90076 12.9183 1.9005 12.9185C0.674959 14.1445 0 15.7744 0 17.5079C0 19.2419 0.675219 20.8721 1.90136 22.0982C3.16698 23.3638 4.82927 23.9966 6.49166 23.9966C8.15404 23.9966 9.81642 23.3638 11.0819 22.0982C11.082 22.0982 11.082 22.0981 11.082 22.0981L14.7541 18.4259C15.261 17.9189 15.261 17.0968 14.754 16.5898C14.2471 16.0828 13.4251 16.0828 12.918 16.5898Z" fill="#0067AA"/>
<path d="M24.0001 6.49148C24.0001 4.75752 23.3248 3.12733 22.0986 1.90119C19.5675 -0.629866 15.4491 -0.62978 12.9181 1.90119C12.918 1.90136 12.9179 1.90145 12.9178 1.90162L9.24576 5.57356C8.73872 6.08052 8.73872 6.90271 9.24576 7.40966C9.49937 7.66327 9.83157 7.78999 10.1639 7.78999C10.4961 7.78999 10.8284 7.66318 11.0819 7.40966L14.7539 3.73772C14.754 3.73755 14.7541 3.73746 14.7543 3.73729C16.2728 2.21876 18.7438 2.21867 20.2625 3.73729C20.9982 4.47301 21.4034 5.45117 21.4034 6.49148C21.4034 7.5317 20.9983 8.50969 20.2628 9.24541L20.2625 9.24568L16.5904 12.9179C16.0835 13.4248 16.0835 14.2469 16.5905 14.754C16.844 15.0075 17.1763 15.1343 17.5085 15.1343C17.8408 15.1343 18.1731 15.0075 18.4266 14.754L22.0987 11.0818C22.099 11.0815 22.0992 11.0812 22.0995 11.0809C23.325 9.85494 24.0001 8.22501 24.0001 6.49148Z" fill="#0067AA"/>
<path d="M7.40982 16.59C7.66334 16.8435 7.99563 16.9703 8.32783 16.9703C8.66011 16.9703 8.9924 16.8435 9.24592 16.59L16.5903 9.24561C17.0974 8.73866 17.0974 7.91655 16.5903 7.40951C16.0834 6.90256 15.2613 6.90256 14.7542 7.40951L7.40982 14.7538C6.90278 15.261 6.90278 16.0831 7.40982 16.59Z" fill="#0067AA"/>
</g>
<defs>
<clipPath id="clip0_150_880">
<rect width="24" height="24" fill="white"/>
</clipPath>
</defs>
</svg>
