<svg width="24" height="24" viewBox="0 0 24 24" fill="none" xmlns="http://www.w3.org/2000/svg">
<path d="M18.4004 5.73819C16.9283 3.61681 14.5954 2.3999 12.0002 2.3999C9.40496 2.3999 7.07201 3.61681 5.59998 5.73819C4.13518 7.84884 3.79695 10.521 4.69342 12.8818C4.93321 13.5265 5.31437 14.1529 5.82361 14.7398L11.4869 21.3636C11.615 21.5135 11.8027 21.5999 12.0002 21.5999C12.1977 21.5999 12.3854 21.5135 12.5135 21.3636L18.1752 14.7416C18.6867 14.1513 19.0673 13.5256 19.3051 12.8861C20.2034 10.521 19.8652 7.84884 18.4004 5.73819ZM18.0426 12.4159C17.8592 12.9093 17.5599 13.3972 17.1533 13.8664C17.1522 13.8675 17.1511 13.8686 17.1502 13.87L12.0002 19.8932L6.84703 13.8662C6.44071 13.3974 6.14135 12.9096 5.95617 12.4114C5.21479 10.459 5.49615 8.24964 6.70904 6.50173C7.92574 4.74823 9.8544 3.74255 12.0002 3.74255C14.1459 3.74255 16.0744 4.74819 17.2911 6.50173C18.5042 8.24964 18.7858 10.459 18.0426 12.4159Z" fill="#0067AA"/>
<path d="M12.0002 6.38312C9.91846 6.38312 8.22465 8.06949 8.22465 10.1426C8.22465 12.2156 9.91824 13.902 12.0002 13.902C14.0821 13.902 15.7757 12.2156 15.7757 10.1426C15.7757 8.06972 14.0819 6.38312 12.0002 6.38312ZM12.0002 12.5593C10.6619 12.5593 9.57304 11.4751 9.57304 10.1425C9.57304 8.80993 10.6619 7.72573 12.0002 7.72573C13.3385 7.72573 14.4273 8.80993 14.4273 10.1425C14.4273 11.4751 13.3385 12.5593 12.0002 12.5593Z" fill="#0067AA"/>
</svg>
