<svg width="24" height="24" viewBox="0 0 24 24" fill="none" xmlns="http://www.w3.org/2000/svg">
<g id="messenger 1" clip-path="url(#clip0_150_794)">
<g id="Mask group">
<mask id="mask0_150_794" style="mask-type:luminance" maskUnits="userSpaceOnUse" x="0" y="0" width="24" height="24">
<g id="Group">
<path id="bg" d="M24 0H0V24H24V0Z" fill="white"/>
<g id="Group_2">
<path id="path901" d="M13.1719 12C13.1719 12.6472 12.6472 13.1719 12 13.1719C11.3528 13.1719 10.8281 12.6472 10.8281 12C10.8281 11.3528 11.3528 10.8281 12 10.8281C12.6472 10.8281 13.1719 11.3528 13.1719 12Z" fill="white"/>
<path id="path905" d="M17.8594 12C17.8594 12.6472 17.3347 13.1719 16.6875 13.1719C16.0403 13.1719 15.5156 12.6472 15.5156 12C15.5156 11.3528 16.0403 10.8281 16.6875 10.8281C17.3347 10.8281 17.8594 11.3528 17.8594 12Z" fill="white"/>
<path id="path909" d="M8.48437 12C8.48437 12.6472 7.9597 13.1719 7.3125 13.1719C6.6653 13.1719 6.14062 12.6472 6.14062 12C6.14062 11.3528 6.6653 10.8281 7.3125 10.8281C7.9597 10.8281 8.48437 11.3528 8.48437 12Z" fill="white"/>
</g>
</g>
</mask>
<g mask="url(#mask0_150_794)">
<g id="Group_3">
<g id="g885">
<g id="g887">
<g id="Clip path group">
<mask id="mask1_150_794" style="mask-type:luminance" maskUnits="userSpaceOnUse" x="0" y="0" width="24" height="24">
<g id="clipPath893">
<path id="path891" d="M0 1.90735e-06H24V24H0V1.90735e-06Z" fill="white"/>
</g>
</mask>
<g mask="url(#mask1_150_794)">
<g id="g889">
<g id="g895">
<path id="path897" d="M12 0.937502C5.89036 0.937502 0.9375 5.89036 0.9375 12C0.9375 14.1509 1.55198 16.1579 2.61403 17.8564L0.9375 23.0625L6.14358 21.386C7.84209 22.448 9.84914 23.0625 12 23.0625C18.1096 23.0625 23.0625 18.1096 23.0625 12C23.0625 5.89036 18.1096 0.937502 12 0.937502Z" stroke="#0067AA" stroke-width="1.5" stroke-miterlimit="10" stroke-linecap="round" stroke-linejoin="round"/>
</g>
<g id="g899">
<path id="path901_2" d="M13.1719 12C13.1719 12.6472 12.6472 13.1719 12 13.1719C11.3528 13.1719 10.8281 12.6472 10.8281 12C10.8281 11.3528 11.3528 10.8281 12 10.8281C12.6472 10.8281 13.1719 11.3528 13.1719 12Z" fill="#0067AA"/>
</g>
<g id="g903">
<path id="path905_2" d="M17.8594 12C17.8594 12.6472 17.3347 13.1719 16.6875 13.1719C16.0403 13.1719 15.5156 12.6472 15.5156 12C15.5156 11.3528 16.0403 10.8281 16.6875 10.8281C17.3347 10.8281 17.8594 11.3528 17.8594 12Z" fill="#0067AA"/>
</g>
<g id="g907">
<path id="path909_2" d="M8.48437 12C8.48437 12.6472 7.9597 13.1719 7.3125 13.1719C6.6653 13.1719 6.14062 12.6472 6.14062 12C6.14062 11.3528 6.6653 10.8281 7.3125 10.8281C7.9597 10.8281 8.48437 11.3528 8.48437 12Z" fill="#0067AA"/>
</g>
</g>
</g>
</g>
</g>
</g>
</g>
</g>
</g>
</g>
<defs>
<clipPath id="clip0_150_794">
<rect width="24" height="24" fill="white"/>
</clipPath>
</defs>
</svg>
