<svg width="24" height="24" viewBox="0 0 24 24" fill="none" xmlns="http://www.w3.org/2000/svg">
<path d="M17.8182 2H6.18182C5.60316 2 5.04821 2.22576 4.63904 2.62763C4.22987 3.02949 4 3.57454 4 4.14286V19.8571C4 20.4255 4.22987 20.9705 4.63904 21.3724C5.04821 21.7742 5.60316 22 6.18182 22H17.8182C18.3968 22 18.9518 21.7742 19.361 21.3724C19.7701 20.9705 20 20.4255 20 19.8571V4.14286C20 3.57454 19.7701 3.02949 19.361 2.62763C18.9518 2.22576 18.3968 2 17.8182 2ZM18.5455 19.8571C18.5455 20.0466 18.4688 20.2283 18.3324 20.3622C18.1961 20.4962 18.0111 20.5714 17.8182 20.5714H6.18182C5.98893 20.5714 5.80395 20.4962 5.66756 20.3622C5.53117 20.2283 5.45455 20.0466 5.45455 19.8571V4.14286C5.45455 3.95342 5.53117 3.77174 5.66756 3.63778C5.80395 3.50383 5.98893 3.42857 6.18182 3.42857H17.8182C18.0111 3.42857 18.1961 3.50383 18.3324 3.63778C18.4688 3.77174 18.5455 3.95342 18.5455 4.14286V19.8571ZM14.1818 18.4286C14.1818 18.618 14.1052 18.7997 13.9688 18.9336C13.8324 19.0676 13.6474 19.1429 13.4545 19.1429H10.5455C10.3526 19.1429 10.1676 19.0676 10.0312 18.9336C9.89481 18.7997 9.81818 18.618 9.81818 18.4286C9.81818 18.2391 9.89481 18.0574 10.0312 17.9235C10.1676 17.7895 10.3526 17.7143 10.5455 17.7143H13.4545C13.6474 17.7143 13.8324 17.7895 13.9688 17.9235C14.1052 18.0574 14.1818 18.2391 14.1818 18.4286Z" fill="#142F37"/>
</svg>
