<svg width="88" height="88" viewBox="0 0 88 88" fill="none" xmlns="http://www.w3.org/2000/svg">
<g clip-path="url(#clip0_107_460)">
<circle cx="44" cy="44" r="44" fill="url(#paint0_linear_107_460)"/>
<circle cx="44" cy="44" r="44" fill="url(#paint1_linear_107_460)"/>
<path d="M63.9531 26.9861C63.8665 25.3972 62.6028 24.1337 61.0139 24.0469C57.8078 23.8718 51.5341 24.0422 45.535 27.1451C42.4768 28.7269 39.2424 31.4089 36.6613 34.5032C36.6295 34.5414 36.5985 34.5797 36.567 34.6179L30.7092 35.0704C29.7449 35.1449 28.8861 35.6503 28.3528 36.4569L24.3564 42.5016C23.952 43.1133 23.8877 43.8788 24.1843 44.5494C24.481 45.22 25.0907 45.6873 25.8153 45.7996L30.7506 46.564C30.7331 46.6599 30.7156 46.7558 30.6996 46.8517C30.5353 47.8345 30.861 48.845 31.5708 49.5547L38.4452 56.4292C39.0337 57.0177 39.8289 57.3421 40.6438 57.3421C40.8116 57.3421 40.9803 57.3283 41.1483 57.3003C41.2442 57.2842 41.3401 57.2667 41.436 57.2493L42.2004 62.1846C42.3127 62.9092 42.78 63.519 43.4505 63.8156C43.7295 63.9391 44.0247 64 44.3186 64C44.7313 63.9999 45.1412 63.8798 45.4984 63.6436L51.5431 59.6471C52.3497 59.1138 52.855 58.2549 52.9294 57.2908L53.3819 51.4331C53.4201 51.4015 53.4585 51.3706 53.4966 51.3388C56.5911 48.7576 59.2731 45.5233 60.8549 42.465C63.958 36.4657 64.1281 30.1919 63.9531 26.9861ZM50.2505 57.692L44.4684 61.5149L43.7234 56.7051C46.1671 55.9866 48.5845 54.8358 50.8876 53.2942L50.5928 57.1102C50.5745 57.3482 50.4496 57.5603 50.2505 57.692ZM40.1024 54.7719L33.228 47.8975C33.0526 47.722 32.9715 47.4755 33.0113 47.2381C33.2156 46.016 33.5332 44.8526 33.9263 43.7567L44.241 54.0714C42.9248 54.5428 41.7458 54.8241 40.7618 54.9886C40.524 55.0282 40.2778 54.9473 40.1024 54.7719ZM30.8897 37.4072L34.7056 37.1124C33.1639 39.4155 32.0131 41.8329 31.2946 44.2766L26.4849 43.5317L30.3079 37.7495C30.4396 37.5503 30.6517 37.4256 30.8897 37.4072ZM51.9956 49.5389C50.1024 51.118 48.2646 52.2602 46.5707 53.0867L34.9128 41.4288C35.9955 39.2176 37.3168 37.3763 38.461 36.0046C40.8497 33.1409 43.8206 30.6705 46.6119 29.2268C52.1177 26.3789 57.9185 26.2255 60.8863 26.3871C61.2791 26.4085 61.5916 26.7209 61.613 27.1138C61.7748 30.0816 61.6211 35.8824 58.7732 41.3882C57.3295 44.1794 54.8591 47.1502 51.9956 49.5389Z" fill="#142F37"/>
<path d="M51.5 42C52.9082 41.9999 54.317 41.4635 55.3891 40.3909C56.428 39.3516 57 37.9698 57 36.5C57 35.0303 56.4279 33.6484 55.3891 32.6091C53.2446 30.4636 49.7553 30.4637 47.611 32.6091C46.5721 33.6484 46 35.0303 46 36.5C46 37.9698 46.5722 39.3516 47.611 40.3909C48.6833 41.4637 50.0913 42.0001 51.5 42ZM49.1665 34.1655C49.8098 33.5218 50.6548 33.2 51.4999 33.2C52.345 33.2 53.1901 33.5218 53.8334 34.1655C54.4566 34.789 54.7999 35.6181 54.7999 36.4999C54.7999 37.3818 54.4566 38.2109 53.8334 38.8345C52.5468 40.1218 50.4531 40.1217 49.1664 38.8345C48.5431 38.2109 48.1999 37.3819 48.1999 36.5C48.1999 35.6182 48.5432 34.789 49.1665 34.1655Z" fill="#009AFF"/>
<path d="M25.1396 57C25.4313 57 25.723 56.8888 25.9454 56.6662L29.6662 52.9455C30.1113 52.5004 30.1113 51.7789 29.6662 51.3338C29.2212 50.8887 28.4996 50.8887 28.0545 51.3338L24.3338 55.0545C23.8887 55.4996 23.8887 56.2211 24.3338 56.6662C24.5563 56.8887 24.8479 57 25.1396 57Z" fill="#009AFF"/>
<path d="M33.6461 54.3539C33.1744 53.882 32.4094 53.882 31.9375 54.3539L24.3539 61.9376C23.882 62.4094 23.882 63.1743 24.3539 63.6462C24.5898 63.8821 24.8989 64 25.2081 64C25.5174 64 25.8266 63.8821 26.0624 63.6461L33.6461 56.0625C34.118 55.5906 34.118 54.8257 33.6461 54.3539Z" fill="#009AFF"/>
<path d="M35.0546 58.3338L31.3338 62.0545C30.8887 62.4996 30.8887 63.2211 31.3338 63.6662C31.5563 63.8887 31.848 64 32.1396 64C32.4312 64 32.723 63.8888 32.9454 63.6662L36.6662 59.9455C37.1113 59.5004 37.1113 58.7789 36.6662 58.3338C36.2212 57.8887 35.4996 57.8887 35.0546 58.3338Z" fill="#009AFF"/>
</g>
<defs>
<linearGradient id="paint0_linear_107_460" x1="-35.5" y1="-114" x2="44" y2="88" gradientUnits="userSpaceOnUse">
<stop stop-color="white"/>
<stop offset="1" stop-color="white" stop-opacity="0.05"/>
</linearGradient>
<linearGradient id="paint1_linear_107_460" x1="-35.5" y1="-114" x2="44" y2="88" gradientUnits="userSpaceOnUse">
<stop stop-color="white"/>
<stop offset="1" stop-color="white" stop-opacity="0.05"/>
</linearGradient>
<clipPath id="clip0_107_460">
<rect width="88" height="88" fill="white"/>
</clipPath>
</defs>
</svg>
