<svg width="88" height="88" viewBox="0 0 88 88" fill="none" xmlns="http://www.w3.org/2000/svg">
<g clip-path="url(#clip0_107_473)">
<circle cx="44" cy="44" r="44" fill="url(#paint0_linear_107_473)"/>
<circle cx="44" cy="44" r="44" fill="url(#paint1_linear_107_473)"/>
<path d="M42.9151 53.6942C42.9151 54.3374 42.6697 54.9798 42.1788 55.4706L39.2643 58.3861C38.2826 59.3668 36.6922 59.3668 35.7106 58.3861C35.2198 57.8952 34.9744 57.252 34.9744 56.6097C34.9744 55.9665 35.2197 55.3232 35.7106 54.8324L38.6253 51.9177C39.5759 50.9671 41.0985 50.9369 42.0851 51.829C42.1169 51.8574 42.1479 51.8868 42.1789 51.9177C42.2099 51.9487 42.2392 51.9797 42.2677 52.0116C42.6989 52.489 42.9151 53.0911 42.9151 53.6942Z" stroke="#142F37" stroke-width="2.43273" stroke-miterlimit="10" stroke-linecap="round" stroke-linejoin="round"/>
<path d="M45.7327 59.0243L44.4923 60.2639C44.0024 60.7547 43.3592 61.0001 42.716 61.0001C42.0727 61.0001 41.4295 60.7547 40.9396 60.2639C39.958 59.2832 39.958 57.6919 40.9396 56.7111L42.1791 55.4707C42.6699 54.9799 43.3131 54.7354 43.9555 54.7354C44.556 54.7354 45.1566 54.9489 45.6331 55.3769C45.6674 55.4071 45.7001 55.4381 45.7328 55.4708C45.7655 55.5034 45.7964 55.5361 45.8266 55.5704C46.7126 56.557 46.6807 58.0754 45.7327 59.0243Z" stroke="#142F37" stroke-width="2.43273" stroke-miterlimit="10" stroke-linecap="round" stroke-linejoin="round"/>
<path d="M41.0365 48.4655C41.0365 49.1087 40.7911 49.7519 40.3003 50.2427L35.7106 54.8324C34.729 55.814 33.1386 55.814 32.157 54.8324C31.667 54.3416 31.4216 53.6984 31.4216 53.0551C31.4216 52.4127 31.667 51.7695 32.157 51.2788L36.7475 46.6891C37.6973 45.7384 39.2208 45.7084 40.2066 46.6003C40.2383 46.6287 40.2694 46.6581 40.3004 46.6891C40.3314 46.7201 40.3607 46.7511 40.3892 46.7829C40.8205 47.2602 41.0365 47.8633 41.0365 48.4655Z" stroke="#142F37" stroke-width="2.43273" stroke-miterlimit="10" stroke-linecap="round" stroke-linejoin="round"/>
<path d="M35.8078 46.5877C35.8078 47.2301 35.5632 47.8733 35.0725 48.3641L32.157 51.2787C31.1763 52.2603 29.5849 52.2603 28.6041 51.2787C28.1134 50.7888 27.8679 50.1456 27.8679 49.5023C27.8679 48.8591 28.1133 48.2159 28.6041 47.726L31.5188 44.8105C32.4677 43.8624 33.9862 43.8306 34.9728 44.7167C35.0071 44.7468 35.0398 44.7778 35.0725 44.8105C35.1051 44.8432 35.1361 44.8759 35.1663 44.9102C35.5942 45.3866 35.8078 45.9871 35.8078 46.5877Z" stroke="#142F37" stroke-width="2.43273" stroke-miterlimit="10" stroke-linecap="round" stroke-linejoin="round"/>
<path d="M48.5409 51.1781L52.4153 55.0526C52.9061 55.5433 53.1515 56.1866 53.1515 56.8289C53.1515 57.4722 52.9062 58.1154 52.4153 58.6062C51.4346 59.5869 49.8433 59.5869 48.8625 58.6062L45.8264 55.5702" stroke="#009AFF" stroke-width="2.43273" stroke-miterlimit="10" stroke-linecap="round" stroke-linejoin="round"/>
<path d="M48.5408 51.1782L52.4152 55.0527C53.3968 56.0343 54.9873 56.0343 55.9689 55.0527C56.4596 54.5627 56.7042 53.9195 56.7042 53.2763C56.7042 52.6331 56.4596 51.9899 55.9689 51.4999L52.0936 47.6246" stroke="#009AFF" stroke-width="2.43273" stroke-miterlimit="10" stroke-linecap="round" stroke-linejoin="round"/>
<path d="M47.5383 35.8992L59.5218 47.9463C60.0126 48.4371 60.258 49.0795 60.258 49.7227C60.258 50.3659 60.0127 51.0091 59.5218 51.5C58.5411 52.4807 56.9498 52.4807 55.969 51.5L52.0937 47.6247" stroke="#009AFF" stroke-width="2.43273" stroke-miterlimit="10" stroke-linecap="round" stroke-linejoin="round"/>
<path d="M29.7867 46.5433L27.4006 44.1572C23.4758 40.2324 23.4758 33.8689 27.4006 29.9442C31.3261 26.0186 37.6898 26.0186 41.6144 29.9442L43.9939 32.3362" stroke="#009AFF" stroke-width="2.43273" stroke-miterlimit="10" stroke-linecap="round" stroke-linejoin="round"/>
<path d="M58.1701 46.5868L60.5989 44.1572C64.5245 40.2324 64.5245 33.8689 60.5989 29.9442C56.6742 26.0186 50.3107 26.0186 46.3859 29.9442L43.9939 32.3362" stroke="#142F37" stroke-width="2.43273" stroke-miterlimit="10" stroke-linecap="round" stroke-linejoin="round"/>
<path d="M47.5383 35.8991L43.3649 40.0718C42.1823 41.2552 40.2635 41.2552 39.0809 40.0718C38.3012 39.2929 38.3012 38.029 39.0809 37.2493L43.9939 32.3363" stroke="#142F37" stroke-width="2.43273" stroke-miterlimit="10" stroke-linecap="round" stroke-linejoin="round"/>
</g>
<defs>
<linearGradient id="paint0_linear_107_473" x1="-35.5" y1="-114" x2="44" y2="88" gradientUnits="userSpaceOnUse">
<stop stop-color="white"/>
<stop offset="1" stop-color="white" stop-opacity="0.05"/>
</linearGradient>
<linearGradient id="paint1_linear_107_473" x1="-35.5" y1="-114" x2="44" y2="88" gradientUnits="userSpaceOnUse">
<stop stop-color="white"/>
<stop offset="1" stop-color="white" stop-opacity="0.05"/>
</linearGradient>
<clipPath id="clip0_107_473">
<rect width="88" height="88" fill="white"/>
</clipPath>
</defs>
</svg>
