<svg width="88" height="88" viewBox="0 0 88 88" fill="none" xmlns="http://www.w3.org/2000/svg">
<g clip-path="url(#clip0_107_493)">
<circle cx="44" cy="44" r="44" fill="url(#paint0_linear_107_493)"/>
<circle cx="44" cy="44" r="44" fill="url(#paint1_linear_107_493)"/>
<path d="M58.4955 44.9732H54.4818C53.9355 44.9732 53.4066 45.0478 52.9033 45.1851C51.9103 43.2332 49.8832 41.8921 47.5473 41.8921H40.4525C38.1166 41.8921 36.0895 43.2332 35.0965 45.1851C34.5932 45.0478 34.0643 44.9732 33.518 44.9732H29.5043C26.1923 44.9732 23.4978 47.6677 23.4978 50.9796V57.396C23.4978 59.3832 25.1145 60.9999 27.1017 60.9999H60.8981C62.8853 60.9999 64.502 59.3832 64.502 57.396V50.9796C64.502 47.6677 61.8075 44.9732 58.4955 44.9732ZM34.446 47.8987V58.5974H27.1017C26.4393 58.5974 25.9004 58.0585 25.9004 57.3961V50.9797C25.9004 48.9925 27.5171 47.3758 29.5043 47.3758H33.518C33.8442 47.3758 34.1599 47.4201 34.4606 47.5017C34.4519 47.6332 34.446 47.7653 34.446 47.8987ZM51.1512 58.5974H36.8486V47.8986C36.8486 45.9115 38.4653 44.2948 40.4525 44.2948H47.5473C49.5345 44.2948 51.1512 45.9115 51.1512 47.8986V58.5974ZM62.0994 57.3961C62.0994 58.0585 61.5605 58.5974 60.8981 58.5974H53.5538V47.8986C53.5538 47.7651 53.5479 47.633 53.5392 47.5017C53.8399 47.4201 54.1556 47.3758 54.4818 47.3758H58.4955C60.4827 47.3758 62.0994 48.9925 62.0994 50.9796V57.3961Z" fill="#142F37"/>
<path d="M31.5113 33.6292C28.5682 33.6292 26.1738 36.0235 26.1738 38.9666C26.1737 41.9097 28.5682 44.304 31.5113 44.304C34.4543 44.304 36.8487 41.9097 36.8487 38.9666C36.8487 36.0235 34.4544 33.6292 31.5113 33.6292ZM31.5112 41.9014C29.8929 41.9014 28.5763 40.5849 28.5763 38.9666C28.5763 37.3483 29.8929 36.0317 31.5112 36.0317C33.1295 36.0317 34.446 37.3483 34.446 38.9666C34.446 40.5849 33.1295 41.9014 31.5112 41.9014Z" fill="#009AFF"/>
<path d="M44.0001 27C40.0682 27 36.8694 30.1988 36.8694 34.1307C36.8694 38.0626 40.0682 41.2615 44.0001 41.2615C47.932 41.2615 51.1308 38.0626 51.1308 34.1307C51.1308 30.1989 47.932 27 44.0001 27ZM44.0001 38.8589C41.393 38.8589 39.272 36.7379 39.272 34.1307C39.272 31.5237 41.393 29.4026 44.0001 29.4026C46.6072 29.4026 48.7282 31.5236 48.7282 34.1307C48.7282 36.7379 46.6072 38.8589 44.0001 38.8589Z" fill="#009AFF"/>
<path d="M56.4886 33.6292C53.5455 33.6292 51.1511 36.0235 51.1511 38.9666C51.1512 41.9097 53.5455 44.304 56.4886 44.304C59.4316 44.304 61.826 41.9097 61.826 38.9666C61.826 36.0235 59.4316 33.6292 56.4886 33.6292ZM56.4886 41.9014C54.8703 41.9014 53.5537 40.5849 53.5537 38.9666C53.5538 37.3483 54.8703 36.0317 56.4886 36.0317C58.1069 36.0317 59.4234 37.3483 59.4234 38.9666C59.4234 40.5849 58.1069 41.9014 56.4886 41.9014Z" fill="#009AFF"/>
</g>
<defs>
<linearGradient id="paint0_linear_107_493" x1="-35.5" y1="-114" x2="44" y2="88" gradientUnits="userSpaceOnUse">
<stop stop-color="white"/>
<stop offset="1" stop-color="white" stop-opacity="0.05"/>
</linearGradient>
<linearGradient id="paint1_linear_107_493" x1="-35.5" y1="-114" x2="44" y2="88" gradientUnits="userSpaceOnUse">
<stop stop-color="white"/>
<stop offset="1" stop-color="white" stop-opacity="0.05"/>
</linearGradient>
<clipPath id="clip0_107_493">
<rect width="88" height="88" fill="white"/>
</clipPath>
</defs>
</svg>
